<mxfile host="app.diagrams.net" agent="Mozilla/5.0 (Windows NT 10.0; Win64; x64) AppleWebKit/537.36 (KHTML, like Gecko) Chrome/131.0.0.0 Safari/537.36 Edg/131.0.0.0" version="25.0.3">
  <diagram name="ページ1" id="3GTc9A7Mifuhn1ZIRoVY">
    <mxGraphModel dx="2328" dy="831" grid="1" gridSize="10" guides="1" tooltips="1" connect="1" arrows="1" fold="1" page="1" pageScale="1" pageWidth="827" pageHeight="1169" math="0" shadow="0">
      <root>
        <mxCell id="0" />
        <mxCell id="1" parent="0" />
        <mxCell id="nNRkUMYMqc65iA-R5jvf-16" value="" style="group;shadow=1;" vertex="1" connectable="0" parent="1">
          <mxGeometry x="400" y="460" width="510" height="260" as="geometry" />
        </mxCell>
        <mxCell id="nNRkUMYMqc65iA-R5jvf-19" value="Public subnet" style="points=[[0,0],[0.25,0],[0.5,0],[0.75,0],[1,0],[1,0.25],[1,0.5],[1,0.75],[1,1],[0.75,1],[0.5,1],[0.25,1],[0,1],[0,0.75],[0,0.5],[0,0.25]];outlineConnect=0;gradientColor=none;html=1;whiteSpace=wrap;fontSize=12;fontStyle=0;container=1;pointerEvents=0;collapsible=0;recursiveResize=0;shape=mxgraph.aws4.group;grIcon=mxgraph.aws4.group_security_group;grStroke=0;strokeColor=#7AA116;fillColor=#F2F6E8;verticalAlign=top;align=left;spacingLeft=30;fontColor=#248814;dashed=0;" vertex="1" parent="nNRkUMYMqc65iA-R5jvf-16">
          <mxGeometry x="40" y="30" width="200" height="200" as="geometry" />
        </mxCell>
        <mxCell id="nNRkUMYMqc65iA-R5jvf-17" value="Availability Zone" style="fillColor=none;strokeColor=#147EBA;dashed=1;verticalAlign=top;fontStyle=0;fontColor=#147EBA;whiteSpace=wrap;html=1;" vertex="1" parent="nNRkUMYMqc65iA-R5jvf-16">
          <mxGeometry width="510" height="260" as="geometry" />
        </mxCell>
        <mxCell id="nNRkUMYMqc65iA-R5jvf-18" value="Private subnet" style="points=[[0,0],[0.25,0],[0.5,0],[0.75,0],[1,0],[1,0.25],[1,0.5],[1,0.75],[1,1],[0.75,1],[0.5,1],[0.25,1],[0,1],[0,0.75],[0,0.5],[0,0.25]];outlineConnect=0;gradientColor=none;html=1;whiteSpace=wrap;fontSize=12;fontStyle=0;container=1;pointerEvents=0;collapsible=0;recursiveResize=0;shape=mxgraph.aws4.group;grIcon=mxgraph.aws4.group_security_group;grStroke=0;strokeColor=#00A4A6;fillColor=#E6F6F7;verticalAlign=top;align=left;spacingLeft=30;fontColor=#147EBA;dashed=0;" vertex="1" parent="nNRkUMYMqc65iA-R5jvf-16">
          <mxGeometry x="270" y="30" width="200" height="200" as="geometry" />
        </mxCell>
        <mxCell id="nNRkUMYMqc65iA-R5jvf-22" value="" style="sketch=0;points=[[0,0,0],[0.25,0,0],[0.5,0,0],[0.75,0,0],[1,0,0],[0,1,0],[0.25,1,0],[0.5,1,0],[0.75,1,0],[1,1,0],[0,0.25,0],[0,0.5,0],[0,0.75,0],[1,0.25,0],[1,0.5,0],[1,0.75,0]];outlineConnect=0;fontColor=#232F3E;fillColor=#ED7100;strokeColor=#ffffff;dashed=0;verticalLabelPosition=bottom;verticalAlign=top;align=center;html=1;fontSize=12;fontStyle=0;aspect=fixed;shape=mxgraph.aws4.resourceIcon;resIcon=mxgraph.aws4.ec2;" vertex="1" parent="nNRkUMYMqc65iA-R5jvf-16">
          <mxGeometry x="101" y="91" width="78" height="78" as="geometry" />
        </mxCell>
        <mxCell id="nNRkUMYMqc65iA-R5jvf-40" value="&lt;b&gt;&lt;font color=&quot;#cc6600&quot;&gt;EC2&lt;/font&gt;&lt;/b&gt;" style="text;html=1;align=center;verticalAlign=middle;resizable=0;points=[];autosize=1;strokeColor=none;fillColor=none;" vertex="1" parent="nNRkUMYMqc65iA-R5jvf-16">
          <mxGeometry x="115" y="169" width="50" height="30" as="geometry" />
        </mxCell>
        <mxCell id="nNRkUMYMqc65iA-R5jvf-42" value="Amazon RDS" style="sketch=0;outlineConnect=0;fontColor=#232F3E;gradientColor=none;strokeColor=#ffffff;fillColor=#232F3E;dashed=0;verticalLabelPosition=middle;verticalAlign=bottom;align=center;html=1;whiteSpace=wrap;fontSize=10;fontStyle=1;spacing=3;shape=mxgraph.aws4.productIcon;prIcon=mxgraph.aws4.rds;shadow=1;" vertex="1" parent="nNRkUMYMqc65iA-R5jvf-16">
          <mxGeometry x="330" y="91" width="80" height="80" as="geometry" />
        </mxCell>
        <mxCell id="nNRkUMYMqc65iA-R5jvf-44" value="&lt;b&gt;&lt;font color=&quot;#495669&quot;&gt;RDS&lt;/font&gt;&lt;/b&gt;" style="text;html=1;align=center;verticalAlign=middle;resizable=0;points=[];autosize=1;strokeColor=none;fillColor=none;" vertex="1" parent="nNRkUMYMqc65iA-R5jvf-16">
          <mxGeometry x="345" y="169" width="50" height="30" as="geometry" />
        </mxCell>
        <mxCell id="nNRkUMYMqc65iA-R5jvf-15" value="" style="group;shadow=0;" vertex="1" connectable="0" parent="1">
          <mxGeometry x="400" y="160" width="510" height="514.6700000000001" as="geometry" />
        </mxCell>
        <mxCell id="nNRkUMYMqc65iA-R5jvf-11" value="Public subnet" style="points=[[0,0],[0.25,0],[0.5,0],[0.75,0],[1,0],[1,0.25],[1,0.5],[1,0.75],[1,1],[0.75,1],[0.5,1],[0.25,1],[0,1],[0,0.75],[0,0.5],[0,0.25]];outlineConnect=0;gradientColor=none;html=1;whiteSpace=wrap;fontSize=12;fontStyle=0;container=1;pointerEvents=0;collapsible=0;recursiveResize=0;shape=mxgraph.aws4.group;grIcon=mxgraph.aws4.group_security_group;grStroke=0;strokeColor=#7AA116;fillColor=#F2F6E8;verticalAlign=top;align=left;spacingLeft=30;fontColor=#248814;dashed=0;" vertex="1" parent="nNRkUMYMqc65iA-R5jvf-15">
          <mxGeometry x="40" y="30" width="200" height="200" as="geometry" />
        </mxCell>
        <mxCell id="nNRkUMYMqc65iA-R5jvf-12" value="Availability Zone" style="fillColor=none;strokeColor=#147EBA;dashed=1;verticalAlign=top;fontStyle=0;fontColor=#147EBA;whiteSpace=wrap;html=1;" vertex="1" parent="nNRkUMYMqc65iA-R5jvf-15">
          <mxGeometry width="510" height="260" as="geometry" />
        </mxCell>
        <mxCell id="nNRkUMYMqc65iA-R5jvf-10" value="Private subnet" style="points=[[0,0],[0.25,0],[0.5,0],[0.75,0],[1,0],[1,0.25],[1,0.5],[1,0.75],[1,1],[0.75,1],[0.5,1],[0.25,1],[0,1],[0,0.75],[0,0.5],[0,0.25]];outlineConnect=0;gradientColor=none;html=1;whiteSpace=wrap;fontSize=12;fontStyle=0;container=1;pointerEvents=0;collapsible=0;recursiveResize=0;shape=mxgraph.aws4.group;grIcon=mxgraph.aws4.group_security_group;grStroke=0;strokeColor=#00A4A6;fillColor=#E6F6F7;verticalAlign=top;align=left;spacingLeft=30;fontColor=#147EBA;dashed=0;" vertex="1" parent="nNRkUMYMqc65iA-R5jvf-15">
          <mxGeometry x="270" y="30" width="200" height="200" as="geometry" />
        </mxCell>
        <mxCell id="nNRkUMYMqc65iA-R5jvf-21" value="" style="sketch=0;points=[[0,0,0],[0.25,0,0],[0.5,0,0],[0.75,0,0],[1,0,0],[0,1,0],[0.25,1,0],[0.5,1,0],[0.75,1,0],[1,1,0],[0,0.25,0],[0,0.5,0],[0,0.75,0],[1,0.25,0],[1,0.5,0],[1,0.75,0]];outlineConnect=0;fontColor=#232F3E;fillColor=#ED7100;strokeColor=#ffffff;dashed=0;verticalLabelPosition=bottom;verticalAlign=top;align=center;html=1;fontSize=12;fontStyle=0;aspect=fixed;shape=mxgraph.aws4.resourceIcon;resIcon=mxgraph.aws4.ec2;shadow=1;" vertex="1" parent="nNRkUMYMqc65iA-R5jvf-15">
          <mxGeometry x="101" y="100" width="78" height="78" as="geometry" />
        </mxCell>
        <mxCell id="nNRkUMYMqc65iA-R5jvf-23" value="" style="points=[[0,0],[0.25,0],[0.5,0],[0.75,0],[1,0],[1,0.25],[1,0.5],[1,0.75],[1,1],[0.75,1],[0.5,1],[0.25,1],[0,1],[0,0.75],[0,0.5],[0,0.25]];outlineConnect=0;gradientColor=none;html=1;whiteSpace=wrap;fontSize=12;fontStyle=0;container=1;pointerEvents=0;collapsible=0;recursiveResize=0;shape=mxgraph.aws4.groupCenter;grIcon=mxgraph.aws4.group_auto_scaling_group;grStroke=1;strokeColor=#D86613;fillColor=none;verticalAlign=top;align=center;fontColor=#D86613;dashed=1;spacingTop=25;direction=north;" vertex="1" parent="nNRkUMYMqc65iA-R5jvf-15">
          <mxGeometry x="80" y="60" width="120" height="454.67" as="geometry" />
        </mxCell>
        <mxCell id="nNRkUMYMqc65iA-R5jvf-35" value="" style="edgeStyle=orthogonalEdgeStyle;html=1;endArrow=none;elbow=vertical;startArrow=none;endFill=0;strokeColor=#545B64;rounded=0;flowAnimation=0;shadow=1;" edge="1" parent="nNRkUMYMqc65iA-R5jvf-23" source="nNRkUMYMqc65iA-R5jvf-22">
          <mxGeometry width="100" relative="1" as="geometry">
            <mxPoint x="100" y="370" as="sourcePoint" />
            <mxPoint x="180" y="80" as="targetPoint" />
          </mxGeometry>
        </mxCell>
        <mxCell id="nNRkUMYMqc65iA-R5jvf-26" value="&lt;font color=&quot;#ff8000&quot; style=&quot;font-size: 10px;&quot;&gt;&lt;b&gt;Auto Scaling Group&lt;/b&gt;&lt;/font&gt;" style="text;html=1;align=center;verticalAlign=middle;resizable=0;points=[];autosize=1;strokeColor=none;fillColor=none;" vertex="1" parent="nNRkUMYMqc65iA-R5jvf-15">
          <mxGeometry x="80" y="300" width="120" height="30" as="geometry" />
        </mxCell>
        <mxCell id="nNRkUMYMqc65iA-R5jvf-28" value="Amazon RDS" style="sketch=0;outlineConnect=0;fontColor=#232F3E;gradientColor=none;strokeColor=#ffffff;fillColor=#232F3E;dashed=0;verticalLabelPosition=middle;verticalAlign=bottom;align=center;html=1;whiteSpace=wrap;fontSize=10;fontStyle=1;spacing=3;shape=mxgraph.aws4.productIcon;prIcon=mxgraph.aws4.rds;shadow=1;" vertex="1" parent="nNRkUMYMqc65iA-R5jvf-15">
          <mxGeometry x="330" y="98" width="80" height="80" as="geometry" />
        </mxCell>
        <mxCell id="nNRkUMYMqc65iA-R5jvf-34" value="" style="edgeStyle=orthogonalEdgeStyle;html=1;endArrow=block;elbow=vertical;startArrow=none;endFill=1;strokeColor=#545B64;rounded=0;" edge="1" parent="nNRkUMYMqc65iA-R5jvf-15">
          <mxGeometry width="100" relative="1" as="geometry">
            <mxPoint x="179" y="138.76" as="sourcePoint" />
            <mxPoint x="330" y="139" as="targetPoint" />
          </mxGeometry>
        </mxCell>
        <mxCell id="nNRkUMYMqc65iA-R5jvf-1" value="AWS Cloud" style="points=[[0,0],[0.25,0],[0.5,0],[0.75,0],[1,0],[1,0.25],[1,0.5],[1,0.75],[1,1],[0.75,1],[0.5,1],[0.25,1],[0,1],[0,0.75],[0,0.5],[0,0.25]];outlineConnect=0;gradientColor=none;html=1;whiteSpace=wrap;fontSize=12;fontStyle=0;container=0;pointerEvents=0;collapsible=0;recursiveResize=0;shape=mxgraph.aws4.group;grIcon=mxgraph.aws4.group_aws_cloud_alt;strokeColor=#232F3E;fillColor=none;verticalAlign=top;align=left;spacingLeft=30;fontColor=#232F3E;dashed=0;" vertex="1" parent="1">
          <mxGeometry y="80" width="970" height="720" as="geometry" />
        </mxCell>
        <mxCell id="nNRkUMYMqc65iA-R5jvf-36" value="" style="edgeStyle=orthogonalEdgeStyle;html=1;endArrow=classicThin;elbow=vertical;startArrow=classicThin;startFill=1;strokeColor=#545B64;rounded=0;dashed=1;endFill=1;" edge="1" parent="1" source="nNRkUMYMqc65iA-R5jvf-42" target="nNRkUMYMqc65iA-R5jvf-28">
          <mxGeometry width="100" relative="1" as="geometry">
            <mxPoint x="770" y="550" as="sourcePoint" />
            <mxPoint x="400" y="430" as="targetPoint" />
          </mxGeometry>
        </mxCell>
        <mxCell id="nNRkUMYMqc65iA-R5jvf-48" value="" style="edgeStyle=orthogonalEdgeStyle;html=1;endArrow=block;elbow=vertical;startArrow=none;endFill=1;strokeColor=#545B64;rounded=0;entryX=0;entryY=0.5;entryDx=0;entryDy=0;entryPerimeter=0;" edge="1" parent="1" target="nNRkUMYMqc65iA-R5jvf-22">
          <mxGeometry width="100" relative="1" as="geometry">
            <mxPoint x="340" y="440" as="sourcePoint" />
            <mxPoint x="660" y="390" as="targetPoint" />
            <Array as="points">
              <mxPoint x="340" y="590" />
            </Array>
          </mxGeometry>
        </mxCell>
        <mxCell id="nNRkUMYMqc65iA-R5jvf-4" value="VPC" style="points=[[0,0],[0.25,0],[0.5,0],[0.75,0],[1,0],[1,0.25],[1,0.5],[1,0.75],[1,1],[0.75,1],[0.5,1],[0.25,1],[0,1],[0,0.75],[0,0.5],[0,0.25]];outlineConnect=0;gradientColor=none;html=1;whiteSpace=wrap;fontSize=12;fontStyle=0;container=1;pointerEvents=0;collapsible=0;recursiveResize=0;shape=mxgraph.aws4.group;grIcon=mxgraph.aws4.group_vpc2;strokeColor=#8C4FFF;fillColor=none;verticalAlign=top;align=left;spacingLeft=30;fontColor=#AAB7B8;dashed=0;" vertex="1" parent="1">
          <mxGeometry x="90" y="120" width="850" height="640" as="geometry" />
        </mxCell>
        <mxCell id="nNRkUMYMqc65iA-R5jvf-46" value="" style="edgeStyle=orthogonalEdgeStyle;html=1;endArrow=block;elbow=vertical;startArrow=none;endFill=1;strokeColor=#545B64;rounded=0;entryX=0;entryY=0.5;entryDx=0;entryDy=0;entryPerimeter=0;" edge="1" parent="nNRkUMYMqc65iA-R5jvf-4" source="nNRkUMYMqc65iA-R5jvf-57">
          <mxGeometry width="100" relative="1" as="geometry">
            <mxPoint x="190" y="320" as="sourcePoint" />
            <mxPoint x="411" y="180.0000000000001" as="targetPoint" />
            <Array as="points">
              <mxPoint x="250" y="321" />
              <mxPoint x="250" y="180" />
            </Array>
          </mxGeometry>
        </mxCell>
        <mxCell id="nNRkUMYMqc65iA-R5jvf-49" value="&lt;font color=&quot;#8c4fff&quot; style=&quot;font-size: 13px;&quot;&gt;&lt;b style=&quot;&quot;&gt;ALB&lt;/b&gt;&lt;/font&gt;" style="text;html=1;align=center;verticalAlign=middle;resizable=0;points=[];autosize=1;strokeColor=none;fillColor=none;" vertex="1" parent="nNRkUMYMqc65iA-R5jvf-4">
          <mxGeometry x="124" y="359" width="50" height="30" as="geometry" />
        </mxCell>
        <mxCell id="nNRkUMYMqc65iA-R5jvf-51" value="" style="sketch=0;outlineConnect=0;fontColor=#232F3E;gradientColor=none;fillColor=#8C4FFF;strokeColor=none;dashed=0;verticalLabelPosition=bottom;verticalAlign=top;align=center;html=1;fontSize=12;fontStyle=0;aspect=fixed;pointerEvents=1;shape=mxgraph.aws4.internet_gateway;" vertex="1" parent="nNRkUMYMqc65iA-R5jvf-4">
          <mxGeometry x="-40" y="281" width="78" height="78" as="geometry" />
        </mxCell>
        <mxCell id="nNRkUMYMqc65iA-R5jvf-57" value="" style="sketch=0;outlineConnect=0;fontColor=#232F3E;gradientColor=none;fillColor=#8C4FFF;strokeColor=none;dashed=0;verticalLabelPosition=bottom;verticalAlign=top;align=center;html=1;fontSize=12;fontStyle=0;aspect=fixed;pointerEvents=1;shape=mxgraph.aws4.application_load_balancer;" vertex="1" parent="nNRkUMYMqc65iA-R5jvf-4">
          <mxGeometry x="110" y="281" width="78" height="78" as="geometry" />
        </mxCell>
        <mxCell id="nNRkUMYMqc65iA-R5jvf-54" value="" style="edgeStyle=orthogonalEdgeStyle;html=1;endArrow=block;elbow=vertical;startArrow=none;endFill=1;strokeColor=#545B64;rounded=0;" edge="1" parent="nNRkUMYMqc65iA-R5jvf-4" source="nNRkUMYMqc65iA-R5jvf-51" target="nNRkUMYMqc65iA-R5jvf-57">
          <mxGeometry width="100" relative="1" as="geometry">
            <mxPoint x="230" y="290" as="sourcePoint" />
            <mxPoint x="110" y="320" as="targetPoint" />
          </mxGeometry>
        </mxCell>
        <mxCell id="nNRkUMYMqc65iA-R5jvf-55" value="" style="outlineConnect=0;dashed=0;verticalLabelPosition=bottom;verticalAlign=top;align=center;html=1;shape=mxgraph.aws3.internet_gateway;fillColor=#F58534;gradientColor=none;" vertex="1" parent="1">
          <mxGeometry x="-150" y="404" width="69" height="72" as="geometry" />
        </mxCell>
        <mxCell id="nNRkUMYMqc65iA-R5jvf-56" value="" style="edgeStyle=orthogonalEdgeStyle;html=1;endArrow=block;elbow=vertical;startArrow=none;endFill=1;strokeColor=#545B64;rounded=0;" edge="1" parent="1" target="nNRkUMYMqc65iA-R5jvf-51">
          <mxGeometry width="100" relative="1" as="geometry">
            <mxPoint x="-81" y="439.57" as="sourcePoint" />
            <mxPoint x="19" y="439.57" as="targetPoint" />
          </mxGeometry>
        </mxCell>
      </root>
    </mxGraphModel>
  </diagram>
</mxfile>
